# xmcd
#
# Track frame offsets: 
#        150
#        7616
#        15060
#        25330
#        34571
#        36106
#        42968
#        45521
#        56858
#        65704
#        76498
#        86426
#        96101
#        106296
#
# Disc length: 1559 seconds
#
# Revision: 0
# Processed by: cddbd v1.5.2PL0 Copyright (c) Steve Scherf et al.
# Submitted via: ExactAudioCopy v0.95b3
#
DISCID=9a06150e
DTITLE=The Beatles  - Way Beyond Compare - Episode 11 Saturday Club and 
DTITLE=Please Please Me Sessions  FLAC
DYEAR=1900
DGENRE=
TTITLE0=Chains
TTITLE1=Please Please Me
TTITLE2=Ask Me Why
TTITLE3=Some Other Guy
TTITLE4=Intro
TTITLE5=Love Me Do
TTITLE6=Please Please Me
TTITLE7=Keep Your Hands Off My Baby
TTITLE8=Beautiful Dreamer
TTITLE9=Ask Me Why
TTITLE10=There's A Place - take 1 (stereo)
TTITLE11=There's A Place - take 2 (stereo)
TTITLE12=There's A Place - takes 3 and 4 (stereo)
TTITLE13=There's A Place - takes 5 and 6 (stereo)
EXTD=
EXTT0=
EXTT1=
EXTT2=
EXTT3=
EXTT4=
EXTT5=
EXTT6=
EXTT7=
EXTT8=
EXTT9=
EXTT10=
EXTT11=
EXTT12=
EXTT13=
PLAYORDER=
